<?xml version="1.0" encoding="UTF-8"?>
<!--Generator: Apple Native CoreSVG 326-->
<!DOCTYPE svg
PUBLIC "-//W3C//DTD SVG 1.1//EN"
       "http://www.w3.org/Graphics/SVG/1.1/DTD/svg11.dtd">
<svg version="1.1" xmlns="http://www.w3.org/2000/svg" xmlns:xlink="http://www.w3.org/1999/xlink" viewBox="0 0 20.2832 19.9316">
 <g>
  <rect height="19.9316" opacity="0" width="20.2832" x="0" y="0"/>
  <path d="M9.96094 19.375C12.6758 19.375 14.8926 15.3613 14.8926 9.98047C14.8926 4.57031 12.6855 0.556641 9.96094 0.556641C7.23633 0.556641 5.0293 4.57031 5.0293 9.98047C5.0293 15.3613 7.24609 19.375 9.96094 19.375ZM9.96094 1.73828C11.875 1.73828 13.584 5.54688 13.584 9.98047C13.584 14.3359 11.875 18.1836 9.96094 18.1836C8.04688 18.1836 6.33789 14.3359 6.33789 9.98047C6.33789 5.54688 8.04688 1.73828 9.96094 1.73828ZM9.32617 0.693359L9.32617 19.1895L10.6055 19.1895L10.6055 0.693359ZM9.96094 13.6328C6.95312 13.6328 4.28711 14.4238 2.91992 15.6836L3.90625 16.4941C5.19531 15.4688 7.29492 14.9121 9.96094 14.9121C12.627 14.9121 14.7266 15.4688 16.0156 16.4941L17.002 15.6836C15.6348 14.4238 12.9688 13.6328 9.96094 13.6328ZM18.9746 9.31641L0.947266 9.31641L0.947266 10.5957L18.9746 10.5957ZM9.96094 6.33789C12.9688 6.33789 15.6348 5.54688 17.002 4.28711L16.0156 3.47656C14.7266 4.49219 12.627 5.05859 9.96094 5.05859C7.29492 5.05859 5.19531 4.49219 3.90625 3.47656L2.91992 4.28711C4.28711 5.54688 6.95312 6.33789 9.96094 6.33789ZM9.96094 19.9219C15.459 19.9219 19.9219 15.459 19.9219 9.96094C19.9219 4.46289 15.459 0 9.96094 0C4.46289 0 0 4.46289 0 9.96094C0 15.459 4.46289 19.9219 9.96094 19.9219ZM9.96094 18.5938C5.19531 18.5938 1.32812 14.7266 1.32812 9.96094C1.32812 5.19531 5.19531 1.32812 9.96094 1.32812C14.7266 1.32812 18.5938 5.19531 18.5938 9.96094C18.5938 14.7266 14.7266 18.5938 9.96094 18.5938Z" fill="#007aff"/>
 </g>
</svg>
